<?xml version="1.0" standalone="no"?>
<!DOCTYPE svg PUBLIC "-//W3C//DTD SVG 20010904//EN"
 "http://www.w3.org/TR/2001/REC-SVG-20010904/DTD/svg10.dtd">
<svg version="1.0" xmlns="http://www.w3.org/2000/svg"
 width="512.000000pt" height="512.000000pt" viewBox="0 0 512.000000 512.000000"
 preserveAspectRatio="xMidYMid meet">

<g transform="translate(0.000000,512.000000) scale(0.100000,-0.100000)"
fill="#000000" stroke="none">
<path d="M1720 3942 c-48 -24 -60 -53 -60 -154 l0 -88 -245 0 c-281 0 -301 -5
-352 -82 -26 -39 -28 -49 -31 -173 -3 -121 -2 -132 17 -149 25 -23 67 -24 89
-2 14 13 18 41 20 136 3 109 6 121 25 135 18 12 63 15 249 15 l228 0 0 -70 c0
-81 16 -120 55 -138 47 -22 84 -15 121 22 l34 34 0 221 c0 178 -3 228 -15 251
-26 50 -84 68 -135 42z"/>
<path d="M2262 3948 c-53 -14 -72 -56 -72 -160 l0 -88 -104 0 c-115 0 -129 -7
-129 -62 0 -48 23 -58 135 -58 l98 0 0 -76 c0 -73 1 -77 34 -110 26 -26 42
-34 71 -34 29 0 45 8 71 34 l34 34 0 224 c0 205 -2 226 -20 256 -11 17 -21 32
-22 32 -2 0 -17 4 -33 8 -17 5 -45 5 -63 0z"/>
<path d="M2792 3948 c-53 -14 -72 -56 -72 -160 l0 -88 -94 0 c-52 0 -102 -3
-111 -6 -37 -15 -38 -82 -1 -106 6 -4 55 -8 109 -8 l97 0 0 -76 c0 -73 1 -77
34 -110 26 -26 42 -34 71 -34 29 0 45 8 71 34 l34 34 0 224 c0 205 -2 226 -20
256 -11 17 -21 32 -22 32 -2 0 -17 4 -33 8 -17 5 -45 5 -63 0z"/>
<path d="M3322 3949 c-53 -16 -72 -58 -72 -161 l0 -88 -97 0 c-54 0 -103 -4
-110 -8 -21 -13 -32 -56 -20 -78 17 -31 27 -34 130 -34 l97 0 0 -76 c0 -73 1
-77 34 -110 37 -37 74 -44 121 -22 50 23 55 48 55 282 0 118 -4 226 -10 240
-17 45 -74 70 -128 55z"/>
<path d="M3577 3682 c-22 -24 -21 -65 1 -85 16 -14 44 -17 179 -17 138 0 164
-2 182 -17 20 -18 21 -28 28 -375 l6 -358 -1406 0 -1407 0 0 128 c0 151 -9
176 -62 180 -72 6 -68 64 -68 -933 0 -848 1 -892 19 -931 22 -49 70 -88 126
-103 56 -15 2714 -15 2770 0 105 29 144 95 145 245 0 88 -3 103 -20 119 -22
20 -63 23 -84 6 -10 -8 -15 -41 -18 -110 -2 -80 -7 -103 -22 -120 l-19 -21
-1367 0 -1367 0 -19 21 c-18 20 -19 49 -22 705 l-2 684 1410 0 1410 0 0 -334
c0 -368 0 -366 60 -366 63 0 61 -32 58 812 l-3 764 -28 42 c-48 73 -79 82
-285 82 -161 0 -181 -2 -195 -18z"/>
<path d="M1937 3122 c-22 -24 -21 -65 1 -85 17 -15 75 -17 624 -17 573 0 606
1 621 18 22 24 21 65 -1 85 -17 15 -75 17 -624 17 -573 0 -606 -1 -621 -18z"/>
<path d="M1762 2268 l3 -163 163 -3 162 -2 0 165 0 165 -165 0 -165 0 2 -162z"/>
<path d="M2400 2265 l0 -165 160 0 160 0 0 165 0 165 -160 0 -160 0 0 -165z"/>
<path d="M3030 2265 l0 -165 163 2 162 3 3 163 2 162 -165 0 -165 0 0 -165z"/>
<path d="M1760 1725 l0 -165 165 0 165 0 0 165 0 165 -165 0 -165 0 0 -165z"/>
<path d="M2400 1725 l0 -165 160 0 160 0 0 165 0 165 -160 0 -160 0 0 -165z"/>
<path d="M3030 1725 l0 -165 165 0 165 0 0 165 0 165 -165 0 -165 0 0 -165z"/>
<path d="M3986 1844 c-12 -11 -16 -36 -16 -94 0 -70 2 -81 22 -94 30 -21 54
-20 78 4 26 26 29 143 4 178 -18 26 -65 30 -88 6z"/>
</g>
</svg>
