<?xml version="1.0" standalone="no"?>
<!DOCTYPE svg PUBLIC "-//W3C//DTD SVG 20010904//EN"
 "http://www.w3.org/TR/2001/REC-SVG-20010904/DTD/svg10.dtd">
<svg version="1.0" xmlns="http://www.w3.org/2000/svg"
 width="128.000000pt" height="128.000000pt" viewBox="0 0 128.000000 128.000000"
 preserveAspectRatio="xMidYMid meet">

<g transform="translate(0.000000,128.000000) scale(0.100000,-0.100000)"
fill="#000000" stroke="none">
<path d="M315 1221 c-48 -22 -79 -54 -100 -103 -13 -32 -15 -109 -15 -546 0
-521 1 -532 38 -532 8 0 102 61 208 135 l194 136 194 -136 c106 -74 200 -135
208 -135 37 0 38 10 38 535 0 474 -2 513 -19 550 -22 48 -54 79 -103 100 -31
12 -87 15 -320 15 -254 0 -287 -2 -323 -19z m625 -76 c61 -31 60 -29 58 -529
l-3 -456 -170 120 c-93 66 -177 119 -185 119 -8 0 -91 -53 -185 -119 l-170
-120 -3 453 c-2 331 1 460 10 481 6 15 25 37 42 47 28 17 55 19 304 19 225 0
278 -3 302 -15z"/>
</g>
</svg>
